<svg width="248" height="242" viewBox="0 0 248 242" fill="none" xmlns="http://www.w3.org/2000/svg">
<path d="M82.95 194.7C82.95 195.7 81.8 196.5 80.35 196.5C78.7 196.65 77.55 195.85 77.55 194.7C77.55 193.7 78.7 192.9 80.15 192.9C81.65 192.75 82.95 193.55 82.95 194.7ZM67.4 192.45C67.05 193.45 68.05 194.6 69.55 194.9C70.85 195.4 72.35 194.9 72.65 193.9C72.95 192.9 72 191.75 70.5 191.3C69.2 190.95 67.75 191.45 67.4 192.45ZM89.5 191.6C88.05 191.95 87.05 192.9 87.2 194.05C87.35 195.05 88.65 195.7 90.15 195.35C91.6 195 92.6 194.05 92.45 193.05C92.3 192.1 90.95 191.45 89.5 191.6ZM122.4 0C53.05 0 0 52.65 0 122C0 177.45 34.9 224.9 84.75 241.6C91.15 242.75 93.4 238.8 93.4 235.55C93.4 232.45 93.25 215.35 93.25 204.85C93.25 204.85 58.25 212.35 50.9 189.95C50.9 189.95 45.2 175.4 37 171.65C37 171.65 25.55 163.8 37.8 163.95C37.8 163.95 50.25 164.95 57.1 176.85C68.05 196.15 86.4 190.6 93.55 187.3C94.7 179.3 97.95 173.75 101.55 170.45C73.6 167.35 45.4 163.3 45.4 115.2C45.4 101.45 49.2 94.55 57.2 85.75C55.9 82.5 51.65 69.1 58.5 51.8C68.95 48.55 93 65.3 93 65.3C103 62.5 113.75 61.05 124.4 61.05C135.05 61.05 145.8 62.5 155.8 65.3C155.8 65.3 179.85 48.5 190.3 51.8C197.15 69.15 192.9 82.5 191.6 85.75C199.6 94.6 204.5 101.5 204.5 115.2C204.5 163.45 175.05 167.3 147.1 170.45C151.7 174.4 155.6 181.9 155.6 193.65C155.6 210.5 155.45 231.35 155.45 235.45C155.45 238.7 157.75 242.65 164.1 241.5C214.1 224.9 248 177.45 248 122C248 52.65 191.75 0 122.4 0ZM48.6 172.45C47.95 172.95 48.1 174.1 48.95 175.05C49.75 175.85 50.9 176.2 51.55 175.55C52.2 175.05 52.05 173.9 51.2 172.95C50.4 172.15 49.25 171.8 48.6 172.45ZM43.2 168.4C42.85 169.05 43.35 169.85 44.35 170.35C45.15 170.85 46.15 170.7 46.5 170C46.85 169.35 46.35 168.55 45.35 168.05C44.35 167.75 43.55 167.9 43.2 168.4ZM59.4 186.2C58.6 186.85 58.9 188.35 60.05 189.3C61.2 190.45 62.65 190.6 63.3 189.8C63.95 189.15 63.65 187.65 62.65 186.7C61.55 185.55 60.05 185.4 59.4 186.2ZM53.7 178.85C52.9 179.35 52.9 180.65 53.7 181.8C54.5 182.95 55.85 183.45 56.5 182.95C57.3 182.3 57.3 181 56.5 179.85C55.8 178.7 54.5 178.2 53.7 178.85Z" fill="#D5213A"/>
</svg>
