<svg width="214" height="245" viewBox="0 0 214 245" fill="none" xmlns="http://www.w3.org/2000/svg">
<g clip-path="url(#clip0_10_13)">
<path d="M107.048 67.4707C76.6674 67.4707 52.1625 92.0186 52.1625 122.452C52.1625 152.886 76.6674 177.434 107.048 177.434C137.428 177.434 161.933 152.886 161.933 122.452C161.933 92.0186 137.428 67.4707 107.048 67.4707ZM107.048 158.197C87.4152 158.197 71.3652 142.167 71.3652 122.452C71.3652 102.737 87.3674 86.707 107.048 86.707C126.728 86.707 142.73 102.737 142.73 122.452C142.73 142.167 126.68 158.197 107.048 158.197V158.197ZM176.98 65.2217C176.98 72.3516 171.248 78.0459 164.178 78.0459C157.061 78.0459 151.376 72.3037 151.376 65.2217C151.376 58.1396 157.108 52.3975 164.178 52.3975C171.248 52.3975 176.98 58.1396 176.98 65.2217ZM213.331 78.2373C212.519 61.0586 208.602 45.8418 196.039 33.3047C183.524 20.7676 168.334 16.8437 151.185 15.9824C133.511 14.9775 80.5366 14.9775 62.8625 15.9824C45.7616 16.7959 30.5714 20.7197 18.0085 33.2568C5.44554 45.7939 1.57634 61.0107 0.716516 78.1895C-0.286609 95.8945 -0.286609 148.962 0.716516 166.667C1.52857 183.846 5.44554 199.062 18.0085 211.6C30.5714 224.137 45.7138 228.061 62.8625 228.922C80.5366 229.927 133.511 229.927 151.185 228.922C168.334 228.108 183.524 224.185 196.039 211.6C208.554 199.062 212.471 183.846 213.331 166.667C214.334 148.962 214.334 95.9424 213.331 78.2373V78.2373ZM190.498 185.664C186.772 195.043 179.559 202.269 170.149 206.049C156.058 211.647 122.62 210.355 107.048 210.355C91.4754 210.355 57.9902 211.6 43.9464 206.049C34.5839 202.316 27.371 195.091 23.5973 185.664C18.0085 171.548 19.2982 138.052 19.2982 122.452C19.2982 106.853 18.0562 73.3086 23.5973 59.2402C27.3232 49.8613 34.5362 42.6357 43.9464 38.8555C58.0379 33.2568 91.4754 34.5488 107.048 34.5488C122.62 34.5488 156.105 33.3047 170.149 38.8555C179.512 42.5879 186.725 49.8135 190.498 59.2402C196.087 73.3564 194.797 106.853 194.797 122.452C194.797 138.052 196.087 171.596 190.498 185.664Z" fill="#D5213A"/>
</g>
<defs>
<clipPath id="clip0_10_13">
<rect width="214" height="245" fill="white"/>
</clipPath>
</defs>
</svg>
